<?xml version="1.0" encoding="utf-8"?>
<!-- Generator: Adobe Illustrator 25.2.3, SVG Export Plug-In . SVG Version: 6.00 Build 0)  -->
<svg version="1.1" id="bold" xmlns="http://www.w3.org/2000/svg" xmlns:xlink="http://www.w3.org/1999/xlink" x="0px" y="0px"
	 viewBox="0 0 512 512" style="enable-background:new 0 0 512 512;" xml:space="preserve">
<style type="text/css">
	.st0{fill:#FFFFFF;}
</style>
<path class="st0" d="M149.3,256c0-4.3,1.3-8.5,3.6-11.7l106.7-160c3.8-5.8,10.2-9.6,17.7-9.6h64c11.7,0,21.3,9.6,21.3,21.3
	c0,4.3-1.3,8.5-3.6,11.7L260.3,256L359,404.3c2.3,3.2,3.6,7.5,3.6,11.7c0,11.7-9.6,21.3-21.3,21.3h-64c-7.5,0-13.9-3.8-17.7-9.6
	L153,267.7C150.6,264.5,149.3,260.3,149.3,256L149.3,256z"/>
</svg>
