<?xml version="1.0" encoding="utf-8"?>
<!-- Generator: Adobe Illustrator 25.2.3, SVG Export Plug-In . SVG Version: 6.00 Build 0)  -->
<svg version="1.1" id="bold" xmlns="http://www.w3.org/2000/svg" xmlns:xlink="http://www.w3.org/1999/xlink" x="0px" y="0px"
	 viewBox="0 0 512 512" style="enable-background:new 0 0 512 512;" xml:space="preserve">
<style type="text/css">
	.st0{fill:#FFFFFF;}
</style>
<path class="st0" d="M256,362.7c-4.3,0-8.5-1.3-11.7-3.6l-160-106.7c-5.8-3.8-9.6-10.2-9.6-17.7v-64c0-11.7,9.6-21.3,21.3-21.3
	c4.3,0,8.5,1.3,11.7,3.6L256,251.7L404.3,153c3.2-2.3,7.5-3.6,11.7-3.6c11.7,0,21.3,9.6,21.3,21.3v64c0,7.5-3.8,13.9-9.6,17.7
	L267.7,359C264.5,361.4,260.3,362.7,256,362.7L256,362.7z"/>
</svg>
