<?xml version="1.0" encoding="utf-8"?>
<!-- Generator: Adobe Illustrator 24.0.2, SVG Export Plug-In . SVG Version: 6.00 Build 0)  -->
<svg version="1.1" id="Capa_1" xmlns="http://www.w3.org/2000/svg" xmlns:xlink="http://www.w3.org/1999/xlink" x="0px" y="0px"
	 viewBox="0 0 512 512" style="enable-background:new 0 0 512 512;" xml:space="preserve">
<style type="text/css">
	.st0{fill:#FFFFFF;}
</style>
<path class="st0" d="M496.6,312.1l-47.1-36.8c1.5-12.8,1.5-25.8,0-38.7l47.1-36.8c8.8-7.1,11.2-19.6,5.6-29.4l-49-84.6
	c-5.6-9.9-17.6-14.2-28.3-10.2l-55.5,22.3c-10.4-7.6-21.6-14-33.3-19.3l-8.5-58.9C326.2,8.3,316.4-0.1,305,0h-98.1
	c-11.3-0.1-20.9,8.2-22.5,19.5l-8.5,59.1c-11.7,5.4-22.8,11.8-33.3,19.4L86.9,75.6c-10.6-4.2-22.5,0.1-28.1,10l-49,84.8
	c-5.8,9.9-3.4,22.5,5.6,29.5l47.1,36.8c-1.5,12.8-1.5,25.8,0,38.7l-47.1,36.8c-8.8,7.1-11.2,19.6-5.6,29.4l48.9,84.7
	c5.6,9.9,17.6,14.2,28.3,10.2l55.5-22.3c10.4,7.6,21.6,14.1,33.3,19.4l8.5,58.9c1.5,11.3,11.1,19.7,22.5,19.6H305
	c11.3,0.1,21-8.2,22.6-19.5l8.5-59.1c11.7-5.4,22.8-11.8,33.3-19.4l55.7,22.4c10.5,4.1,22.5-0.1,28.1-10l49.2-85.1
	C507.9,331.5,505.4,319.1,496.6,312.1z M256,362.7c-58.9,0-106.7-47.8-106.7-106.7S197.1,149.3,256,149.3S362.6,197.1,362.6,256
	C362.6,314.9,314.8,362.6,256,362.7z"/>
</svg>
